<svg xmlns="http://www.w3.org/2000/svg" width="124" height="48" fill="none" xmlns:v="https://vecta.io/nano"><path d="M8.402 32.394c-2.414 0-3.67-.872-3.67-2.617 0-2.035 1.449-2.908 4.539-2.908h3.477c.193 0 .29.097.29.291v1.648c0 2.423-1.642 3.586-4.636 3.586zm8.885 3.586c.29 0 .483-.194.483-.485v-13.86c0-5.234-2.414-7.463-8.885-7.463-3.477 0-5.794.872-7.533 2.035-.193.097-.193.388-.097.582l1.642 2.908c.097.194.386.291.579.097.966-.775 2.511-1.454 4.829-1.454 3.573 0 4.732 1.066 4.732 3.489v.969c0 .194-.097.291-.29.291H8.498C3.283 23.09 0 25.222 0 29.874c0 4.459 3.283 6.494 7.146 6.494 2.994 0 5.022-.969 5.988-2.52v1.551c0 .291.193.485.483.485h3.67v.097zm22.017.001c.29 0 .483-.194.483-.485V22.12c0-4.555-2.801-7.948-7.34-7.948-2.801 0-4.636 1.163-5.601 2.52v-1.551c0-.291-.193-.485-.483-.485H22.21c-.29 0-.483.194-.483.485v20.451c0 .291.193.485.483.485h4.056c.29 0 .483-.194.483-.485V23.283c0-2.714 1.449-4.652 4.056-4.652s3.959 1.939 3.959 4.653v12.31c0 .291.193.485.483.485h4.056v-.097zm11.783-3.587c-2.414 0-3.67-.872-3.67-2.617 0-2.035 1.449-2.908 4.539-2.908h3.477c.193 0 .29.097.29.291v1.648c.097 2.423-1.545 3.586-4.635 3.586zm8.981 3.586c.29 0 .483-.194.483-.485v-13.86c0-5.234-2.414-7.463-8.885-7.463-3.477 0-5.794.872-7.533 2.035-.193.097-.193.388-.096.582l1.642 2.908c.097.194.386.291.58.097.966-.775 2.511-1.454 4.829-1.454 3.573 0 4.732 1.066 4.732 3.489v.969c0 .194-.097.291-.29.291h-4.346c-5.215 0-8.498 2.132-8.498 6.785 0 4.459 3.284 6.494 7.147 6.494 2.994 0 5.022-.969 5.987-2.52v1.551c0 .291.193.485.483.485h3.766v.097zm21.923.001c.29 0 .483-.194.483-.485V22.12c0-4.555-2.801-7.948-7.34-7.948-2.801 0-4.635 1.163-5.601 2.52v-1.551c0-.291-.193-.485-.483-.485h-4.056c-.29 0-.483.194-.483.485v20.451c0 .291.193.485.483.485h4.056c.29 0 .483-.194.483-.485V23.283c0-2.714 1.449-4.652 4.056-4.652s3.96 1.939 3.96 4.653v12.31c0 .291.193.485.483.485h3.959v-.097zm11.879-3.587c-2.414 0-3.67-.872-3.67-2.617 0-2.035 1.449-2.908 4.539-2.908h3.477c.193 0 .29.097.29.291v1.648c0 2.423-1.642 3.586-4.635 3.586zm8.885 3.586c.29 0 .483-.194.483-.485v-13.86c0-5.234-2.414-7.463-8.885-7.463-3.477 0-5.794.872-7.533 2.035-.193.097-.193.388-.097.582l1.642 2.908c.096.194.386.291.579.097.966-.775 2.511-1.454 4.829-1.454 3.573 0 4.732 1.066 4.732 3.489v.969c0 .194-.096.291-.29.291H93.87c-5.215 0-8.498 2.132-8.498 6.785 0 4.459 3.284 6.494 7.146 6.494 2.994 0 5.022-.969 5.987-2.52v1.551c0 .291.193.485.483.485h3.766v.097zm12.36.485c5.794 0 8.885-3.005 8.885-7.172 0-3.489-2.125-5.816-6.567-6.203l-2.318-.194c-2.704-.291-3.477-.969-3.477-2.229s1.063-2.229 3.187-2.229 4.249.872 5.505 1.745c.193.097.483.097.579-.097l2.125-2.617c.097-.194.097-.485-.097-.582-1.931-1.551-4.635-2.617-8.015-2.617-5.312 0-8.209 2.617-8.209 6.688 0 3.586 2.221 5.816 6.471 6.3l2.317.194c2.801.291 3.477 1.066 3.477 2.326 0 1.454-1.352 2.52-3.96 2.52-2.221 0-4.635-.969-6.18-2.423-.193-.194-.483-.194-.58 0l-2.511 2.617c-.193.194-.193.485 0 .581 2.028 1.648 5.022 3.392 9.368 3.392z" fill="#fe502a"/><path d="M1.642 11.362h15.741c.29 0 .483-.194.483-.485V7.485c0-.291-.193-.485-.483-.485H1.642c-.29 0-.483.194-.483.485v3.489c0 .194.193.388.483.388z" fill="#84bd00"/></svg>